<svg width="210" height="210" viewBox="0 0 210 210" fill="none" xmlns="http://www.w3.org/2000/svg">
<rect width="210" height="210" rx="40" fill="#211F26"/>
<path d="M94.9969 54.7394C98.9794 46.2744 111.021 46.2744 115.003 54.7394V54.7394C117.59 60.2373 124.129 62.6173 129.644 60.0682V60.0682C138.136 56.1436 147.36 63.8836 144.97 72.928V72.928C143.417 78.8023 146.896 84.8286 152.76 86.4212V86.4212C161.788 88.8733 163.879 100.732 156.234 106.124V106.124C151.269 109.626 150.06 116.478 153.529 121.467V121.467C158.868 129.149 152.848 139.577 143.525 138.793V138.793C137.471 138.284 132.14 142.757 131.59 148.808V148.808C130.743 158.125 119.428 162.243 112.79 155.651V155.651C108.479 151.369 101.521 151.369 97.2097 155.651V155.651C90.5722 162.243 79.2571 158.125 78.41 148.808V148.808C77.8598 142.757 72.5293 138.284 66.4746 138.793V138.793C57.1525 139.577 51.1319 129.149 56.4715 121.467V121.467C59.9395 116.478 58.7312 109.626 53.7659 106.124V106.124C46.1211 100.732 48.2121 88.8733 57.24 86.4212V86.4212C63.1035 84.8286 66.5828 78.8023 65.0303 72.928V72.928C62.6399 63.8836 71.864 56.1436 80.356 60.0682V60.0682C85.8714 62.6173 92.4102 60.2373 94.9969 54.7394V54.7394Z" fill="#E8DEF8"/>
</svg>
